<svg xmlns:xlink="http://www.w3.org/1999/xlink" xmlns="http://www.w3.org/2000/svg" width="214" height="27" focusable="false" viewBox="0 0 3029.8 368.9" fill="none" tabindex="0" aria-label="Enterprise Mobility Logo" class="jsx-521034180 base" style="cursor: pointer;"><path fill="#00C763" d="M147.4 227.1h183c28.7 0 57.5-11.7 78.8-32.2 22.6-21.6 35-50.5 35-81.4s-11.9-59.7-33.5-81C389.3 11.6 360.8 0 330.4 0h-93.1C150 0 76.7 60.7 57.4 142H4.5C2 142 0 144 0 146.4V173c0 2.5 2 4.4 4.5 4.4h325.9c38.3 0 64-33 64-63.9 0-35.8-28.1-63.9-64-63.9h-93.1c-59.6 0-110.3 38.7-128.2 92.3H94.2c18.4-61.5 75.6-106.5 143.2-106.5h93.1c43.9 0 78.3 34.4 78.2 78.2-.1 43.9-36.6 77.9-79.5 77.9H4.5c-2.5 0-4.5 2-4.5 4.4v26.6c0 2.5 2 4.4 4.5 4.4h52.9c19.3 81.3 92.7 142 180 142h179.9c2.5 0 4.5-2 4.5-4.4v-26.6c0-2.5-2-4.4-4.5-4.4H237.4c-67.5 0-124.8-44.9-143.2-106.5h14.9c17.9 53.6 68.6 92.3 128.2 92.3h179.9c2.5 0 4.5-2 4.5-4.4v-26.6c0-2.5-2-4.4-4.5-4.4H237.4c-39.7.1-74-23.2-90-56.8Zm90-142h92c13.6 0 25.8 9.1 28.8 22.3 4.4 19.2-12.7 34.5-27.8 34.5h-183c16-33.5 50.3-56.8 90-56.8Z"></path><path fill="#002858" d="M2038.1 285.1c-19.2 0-30.7-10.7-34-29.3l-25.2-134.7c-.8-4.1-2.7-6.6-6.8-6.6-3.8 0-6 2.7-6 7.4v161.6h-28.2V122.2c0-20.3 12.9-32.4 34-32.4 18.7 0 30.4 10.4 33.7 29.1l25.2 135c1.1 4.4 3.3 6.6 7.4 6.6s6.3-2.2 7.1-6.6l25.2-135c3.3-18.7 15.4-29.1 34-29.1 21.1 0 33.7 12.1 33.7 32.4v161.3H2110V121.9c0-4.7-2.2-7.4-6-7.4-4.1 0-6 2.5-6.9 6.6l-25.2 134.7c-3.3 18.6-14.8 29.3-33.8 29.3ZM2236.7 285.1c-41.1 0-69.1-28.8-69.1-71.3s28.2-71.3 69.1-71.3 69.7 28.8 69.7 71.3-28.3 71.3-69.7 71.3Zm-41.4-71.3c0 30.4 15.6 48.8 41.4 48.8s41.7-18.4 41.7-48.8-15.9-49.1-41.7-49.1-41.4 18.9-41.4 49.1ZM2408.5 285.1c-19.5 0-37.9-9.6-47.2-24.7h-1.1v23h-26.1V85.6h27.4v81.6h.8c9.9-15.4 27.2-24.7 46.1-24.7 37.6 0 61.7 28 61.7 71.3.1 43.4-24 71.3-61.6 71.3Zm-48-71.3c0 30.2 15.4 48.8 40.6 48.8s41.4-18.4 41.4-48.8-15.9-49.1-41.4-49.1c-25 0-40.6 18.9-40.6 49.1ZM2498.1 283.5V143.9h27.4v139.6h-27.4Zm-2.5-165.4V85.6h32.4v32.5h-32.4ZM2561.6 283.5V86h27.4v197.5h-27.4ZM2625 283.5V143.9h27.4v139.6H2625Zm-2.4-165.4V85.6h32.4v32.5h-32.4ZM2743.9 283.5c-25.5 0-39.2-14-39.2-39.5v-78.2h-27.2v-21.9h27.2v-41.1h27.4v41.1h37.3v21.9h-37.3v80.1c0 10.1 5.5 15.6 15.6 15.6h21.7v21.9h-25.5v.1ZM2806 335.6v-21.9h68.3c9.1 0 14.3-4.9 14.3-14.3v-35.9h-1.1c-5.5 12.3-21.9 21.7-39.2 21.7-34.6 0-52.4-20.6-52.4-60.9v-80.4h27.4v83.4c0 22.2 11.8 34.6 32.4 34.6 21.7 0 32.9-11.8 32.9-34.6v-83.4h27.4v153.6c0 24.7-13.4 38.1-38.1 38.1H2806ZM600.3 283.4h127.9v-24.1h-99.6v-60.4H720v-24.1h-91.4v-59.3h96.9V91.4H600.3v192ZM760 283.4h27.4v-78.7c0-26.3 11-39.2 33.5-39.2s32.9 12.3 32.9 39.2v78.7h27.4v-78.7c0-40.9-17.6-62.3-49.4-62.3-19.5 0-35.1 8.5-44.7 23.9H786v-22.5h-26v139.6ZM967.4 283.4h25.5v-22h-21.7c-10.2 0-15.6-5.5-15.6-15.6v-80.1h37.3v-21.9h-37.3v-41.2h-27.4v41.2H901v21.9h27.2v78.2c0 25.5 13.7 39.5 39.2 39.5ZM1037.1 204.9c1.6-28.5 13.4-40.3 38.7-40.3 21.4 0 34 12.3 34 33.2 0 5.2-2.2 7.1-8.8 7.1h-63.9Zm37.3 78.5h51.3v-23.3h-51.3c-23.9 0-35.4-9.9-37.3-33.2h72.2c18.1 0 27.7-9.1 27.7-26.9 0-34-25.2-57.6-61.2-57.6-43.4 0-66.7 26.1-66.7 73.8 0 43.6 22.8 67.2 65.3 67.2ZM1163.1 183.3v100.1h27.4v-102c0-9.1 5.2-14.3 14.3-14.3h37.3v-23.3h-39.8c-25.5 0-39.2 14-39.2 39.5ZM1294.8 213.5c0-30.2 15.4-48.8 40.6-48.8s41.4 18.4 41.4 48.8-15.9 49.1-41.4 49.1-40.6-19-40.6-49.1Zm-26.4 122.1h27.4v-75.5h.8c9.9 15.4 27.2 25 46.1 25 37.6 0 61.7-28.3 61.7-71.6s-24.2-71.1-61.7-71.1c-19.5 0-37.9 9.3-47.2 24.4h-1.1v-23h-26.1l.1 191.8ZM1430.9 183.3v100.1h27.4v-102c0-9.1 5.2-14.3 14.3-14.3h37.3v-23.3h-39.8c-25.5 0-39.2 14-39.2 39.5ZM1533.8 118h32.4V85.6h-32.4V118Zm2.4 165.4h27.4V143.8h-27.4v139.6ZM1593 283.4h57.9c26.3 0 41.7-14.5 41.7-39.5 0-20.9-10.2-32.7-36.5-39l-12.6-3c-17.6-4.1-24.7-9.9-24.7-20.3 0-9.6 6.3-14.5 19.5-14.5h48.8v-23.3h-51.6c-26.6 0-42.5 14.3-42.5 37.6 0 22 13.7 35.4 41.7 40.9l9.6 1.9c17.8 3.6 23.1 8.8 23.1 19.8s-6.9 16.2-20.6 16.2H1593v23.2ZM1742 204.9c1.7-28.5 13.4-40.3 38.7-40.3 21.4 0 34 12.3 34 33.2 0 5.2-2.2 7.1-8.8 7.1H1742Zm37.3 78.5h51.3v-23.3h-51.3c-23.9 0-35.4-9.9-37.3-33.2h72.2c18.1 0 27.7-9.1 27.7-26.9 0-34-25.2-57.6-61.2-57.6-43.3 0-66.7 26.1-66.7 73.8 0 43.6 22.8 67.2 65.3 67.2ZM2957.9 103.7h-14.1V99h34.1v4.7h-14.1V143h-6v-39.3h.1Zm27.7-4.7h7.9l14.1 35.5h.2l13.9-35.5h8.1v44h-5.8v-36.2h-.2l-14 36.2h-4.2l-14.1-36.1h-.1V143h-5.7l-.1-44Z"></path></svg>